<svg xmlns="http://www.w3.org/2000/svg" width="143.112" height="162.878" viewBox="0 0 143.112 162.878">
  <g id="Q-pizza" transform="translate(-440.944 -260.061)">
    <g id="Ellipse_6" data-name="Ellipse 6" transform="translate(510.444 260.061) rotate(30)" fill="#c86503" stroke="#000" stroke-width="2">
      <ellipse cx="42.5" cy="69.5" rx="42.5" ry="69.5" stroke="none"/>
      <ellipse cx="42.5" cy="69.5" rx="41.5" ry="68.5" fill="none"/>
    </g>
    <g id="Ellipse_7" data-name="Ellipse 7" transform="translate(511.824 270.73) rotate(30)" fill="#ffbb54" stroke="#000" stroke-width="2">
      <ellipse cx="34.5" cy="61.5" rx="34.5" ry="61.5" stroke="none"/>
      <ellipse cx="34.5" cy="61.5" rx="33.5" ry="60.5" fill="none"/>
    </g>
    <path id="Path_5" data-name="Path 5" d="M511.286,353.373s22.708,41.121,22.316,44.161-5.339,14.5-11.418,11.491,3.664,29.052-5.006,21.789-23.614.5-30.452-9.016,24.56-68.425,24.56-68.425" transform="translate(-2 -13)" fill="#ffe600" stroke="#000" stroke-linecap="round" stroke-width="2"/>
    <ellipse id="Ellipse_8" data-name="Ellipse 8" cx="6.5" cy="4" rx="6.5" ry="4" transform="matrix(0.588, -0.809, 0.809, 0.588, 476.826, 361.729)"/>
    <ellipse id="Ellipse_9" data-name="Ellipse 9" cx="6.5" cy="4" rx="6.5" ry="4" transform="matrix(0.588, -0.809, 0.809, 0.588, 490.826, 327.729)"/>
    <ellipse id="Ellipse_10" data-name="Ellipse 10" cx="6.5" cy="4" rx="6.5" ry="4" transform="matrix(0.588, -0.809, 0.809, 0.588, 522.826, 341.729)"/>
    <ellipse id="Ellipse_11" data-name="Ellipse 11" cx="6.5" cy="4" rx="6.5" ry="4" transform="matrix(0.588, -0.809, 0.809, 0.588, 522.826, 310.729)"/>
  </g>
</svg>
